<svg xmlns="http://www.w3.org/2000/svg" xmlns:xlink="http://www.w3.org/1999/xlink" width="480" zoomAndPan="magnify" viewBox="0 0 360 119.999999" height="160" preserveAspectRatio="xMidYMid meet" version="1.0"><defs><g/></defs><g fill="#8e5f3f" fill-opacity="1"><g transform="translate(29.844587, 81.270079)"><g><path d="M 105.28125 -17.796875 C 102.800781 -18.085938 100.300781 -18.234375 97.78125 -18.234375 C 96.675781 -18.273438 95.550781 -18.304688 94.40625 -18.328125 C 84.007812 -18.753906 73.582031 -18.863281 63.125 -18.65625 C 62.601562 -18.65625 62.175781 -18.65625 61.84375 -18.65625 C 61.269531 -18.695312 60.851562 -18.691406 60.59375 -18.640625 C 60.332031 -18.597656 60.125 -18.457031 59.96875 -18.21875 C 59.8125 -17.976562 59.628906 -17.585938 59.421875 -17.046875 C 59.285156 -16.734375 59.117188 -16.34375 58.921875 -15.875 C 57.179688 -12.082031 55.582031 -8.222656 54.125 -4.296875 C 53.175781 -1.765625 52.441406 0.828125 51.921875 3.484375 C 51.734375 4.316406 51.664062 5.125 51.71875 5.90625 C 51.78125 6.695312 52.132812 7.40625 52.78125 8.03125 C 52.875 8.09375 52.90625 8.171875 52.875 8.265625 C 52.851562 8.367188 52.796875 8.460938 52.703125 8.546875 C 52.617188 8.628906 52.523438 8.679688 52.421875 8.703125 C 50.867188 8.941406 49.9375 8.390625 49.625 7.046875 C 49.445312 6.296875 49.414062 5.523438 49.53125 4.734375 C 49.53125 4.671875 49.53125 4.625 49.53125 4.59375 C 49.644531 3.226562 49.882812 1.875 50.25 0.53125 C 50.625 -0.8125 51.039062 -2.15625 51.5 -3.5 C 52.96875 -7.550781 54.582031 -11.550781 56.34375 -15.5 C 56.4375 -15.664062 56.507812 -15.835938 56.5625 -16.015625 C 56.65625 -16.203125 56.753906 -16.398438 56.859375 -16.609375 C 56.992188 -16.898438 57.117188 -17.1875 57.234375 -17.46875 C 57.359375 -17.757812 57.40625 -18.0625 57.375 -18.375 C 57.238281 -18.488281 57.097656 -18.554688 56.953125 -18.578125 C 56.804688 -18.609375 56.664062 -18.609375 56.53125 -18.578125 C 56.5 -18.578125 56.460938 -18.578125 56.421875 -18.578125 C 55.203125 -18.578125 53.976562 -18.566406 52.75 -18.546875 C 52.40625 -18.546875 52.046875 -18.546875 51.671875 -18.546875 C 51.222656 -18.515625 50.84375 -18.367188 50.53125 -18.109375 C 50.21875 -17.847656 49.914062 -17.53125 49.625 -17.15625 C 49.25 -16.675781 48.875 -16.195312 48.5 -15.71875 C 46.90625 -13.675781 45.296875 -11.65625 43.671875 -9.65625 C 41.265625 -6.75 38.753906 -3.941406 36.140625 -1.234375 C 33.523438 1.460938 30.75 3.988281 27.8125 6.34375 C 24.125 9.382812 20.207031 12.0625 16.0625 14.375 C 9.726562 17.78125 3.085938 19.390625 -3.859375 19.203125 C -10.398438 19.054688 -16.300781 17.289062 -21.5625 13.90625 C -23.039062 12.957031 -24.351562 11.816406 -25.5 10.484375 C -26.257812 9.535156 -26.863281 8.507812 -27.3125 7.40625 C -27.757812 6.3125 -27.984375 5.125 -27.984375 3.84375 C -27.921875 2.289062 -27.566406 0.859375 -26.921875 -0.453125 C -26.285156 -1.773438 -25.394531 -2.972656 -24.25 -4.046875 C -22.675781 -5.566406 -20.945312 -6.851562 -19.0625 -7.90625 C -17.238281 -8.96875 -15.351562 -9.898438 -13.40625 -10.703125 C -11.46875 -11.503906 -9.507812 -12.210938 -7.53125 -12.828125 C -4.34375 -13.859375 -1.117188 -14.722656 2.140625 -15.421875 C 5.398438 -16.128906 8.671875 -16.726562 11.953125 -17.21875 C 19.742188 -18.289062 27.554688 -19.003906 35.390625 -19.359375 C 39.390625 -19.609375 43.375 -19.734375 47.34375 -19.734375 C 48.4375 -19.703125 49.28125 -20.160156 49.875 -21.109375 C 50.925781 -22.585938 51.988281 -24.078125 53.0625 -25.578125 C 54.707031 -27.859375 56.328125 -30.179688 57.921875 -32.546875 C 65.347656 -43.640625 72.46875 -54.910156 79.28125 -66.359375 C 79.84375 -67.335938 80.398438 -68.328125 80.953125 -69.328125 C 81.210938 -69.828125 81.484375 -70.335938 81.765625 -70.859375 C 82.109375 -71.523438 82.648438 -71.894531 83.390625 -71.96875 C 83.785156 -71.96875 84.078125 -71.851562 84.265625 -71.625 C 84.453125 -71.394531 84.476562 -71.09375 84.34375 -70.71875 C 84.195312 -70.40625 84.035156 -70.109375 83.859375 -69.828125 C 82.753906 -67.859375 81.769531 -65.859375 80.90625 -63.828125 C 80.582031 -63.109375 80.265625 -62.40625 79.953125 -61.71875 C 76.953125 -55.21875 73.941406 -48.707031 70.921875 -42.1875 C 68.609375 -37.164062 66.273438 -32.128906 63.921875 -27.078125 C 63.242188 -25.578125 62.578125 -24.085938 61.921875 -22.609375 C 61.773438 -22.296875 61.628906 -22 61.484375 -21.71875 C 61.460938 -21.65625 61.4375 -21.582031 61.40625 -21.5 C 61.320312 -21.289062 61.25 -21.085938 61.1875 -20.890625 C 61.132812 -20.691406 61.148438 -20.492188 61.234375 -20.296875 C 61.429688 -20.148438 61.660156 -20.070312 61.921875 -20.0625 C 62.179688 -20.050781 62.421875 -20.046875 62.640625 -20.046875 C 62.816406 -20.066406 62.976562 -20.078125 63.125 -20.078125 C 64.207031 -20.054688 65.289062 -20.054688 66.375 -20.078125 C 67.851562 -20.078125 69.34375 -20.066406 70.84375 -20.046875 C 78.945312 -19.898438 87.054688 -19.722656 95.171875 -19.515625 C 97.828125 -19.460938 100.46875 -19.351562 103.09375 -19.1875 C 103.332031 -19.15625 103.582031 -19.140625 103.84375 -19.140625 C 103.976562 -19.140625 104.128906 -19.140625 104.296875 -19.140625 C 104.640625 -19.140625 104.96875 -19.109375 105.28125 -19.046875 C 105.601562 -18.992188 105.90625 -18.882812 106.1875 -18.71875 C 106.238281 -18.675781 106.273438 -18.613281 106.296875 -18.53125 C 106.328125 -18.445312 106.332031 -18.378906 106.3125 -18.328125 C 106.3125 -18.234375 106.273438 -18.148438 106.203125 -18.078125 C 106.128906 -18.015625 106.066406 -17.96875 106.015625 -17.9375 C 105.785156 -17.84375 105.539062 -17.796875 105.28125 -17.796875 Z M 47.21875 -17.59375 C 47.300781 -17.769531 47.304688 -17.929688 47.234375 -18.078125 C 47.171875 -18.222656 47.054688 -18.296875 46.890625 -18.296875 C 46.628906 -18.316406 46.351562 -18.316406 46.0625 -18.296875 C 45.914062 -18.296875 45.773438 -18.296875 45.640625 -18.296875 C 35.835938 -18.171875 26.023438 -17.492188 16.203125 -16.265625 C 12.453125 -15.804688 8.71875 -15.207031 5 -14.46875 C 1.289062 -13.726562 -2.382812 -12.800781 -6.03125 -11.6875 C -7.976562 -11.09375 -9.898438 -10.40625 -11.796875 -9.625 C -13.691406 -8.851562 -15.546875 -7.9375 -17.359375 -6.875 C -19.234375 -5.820312 -20.945312 -4.535156 -22.5 -3.015625 C -24.300781 -1.160156 -25.316406 0.8125 -25.546875 2.90625 C -25.773438 5.007812 -25.210938 7.035156 -23.859375 8.984375 C -22.859375 10.347656 -21.664062 11.515625 -20.28125 12.484375 C -15.21875 16.078125 -9.1875 17.910156 -2.1875 17.984375 C -0.394531 17.984375 1.664062 17.75 4 17.28125 C 6.300781 16.800781 8.53125 16.09375 10.6875 15.15625 C 12.84375 14.226562 14.9375 13.132812 16.96875 11.875 C 21.96875 8.800781 26.597656 5.21875 30.859375 1.125 C 33.804688 -1.632812 36.582031 -4.539062 39.1875 -7.59375 C 41.800781 -10.65625 44.332031 -13.773438 46.78125 -16.953125 C 46.925781 -17.179688 47.070312 -17.394531 47.21875 -17.59375 Z M 59.140625 -21.625 C 61.015625 -25.90625 62.953125 -30.175781 64.953125 -34.4375 C 65.046875 -34.664062 65.347656 -35.335938 65.859375 -36.453125 C 66.378906 -37.566406 66.972656 -38.859375 67.640625 -40.328125 C 68.304688 -41.804688 68.914062 -43.195312 69.46875 -44.5 C 70.03125 -45.8125 70.425781 -46.796875 70.65625 -47.453125 C 70.882812 -48.109375 70.816406 -48.171875 70.453125 -47.640625 C 70.359375 -47.523438 70.285156 -47.410156 70.234375 -47.296875 C 69.921875 -46.835938 69.625 -46.378906 69.34375 -45.921875 C 66.96875 -42.234375 64.578125 -38.550781 62.171875 -34.875 C 59.765625 -31.207031 57.28125 -27.585938 54.71875 -24.015625 C 54.46875 -23.679688 54.210938 -23.320312 53.953125 -22.9375 C 53.460938 -22.269531 52.976562 -21.59375 52.5 -20.90625 C 52.300781 -20.613281 52.242188 -20.375 52.328125 -20.1875 C 52.410156 -20 52.609375 -19.90625 52.921875 -19.90625 C 53.441406 -19.90625 53.953125 -19.921875 54.453125 -19.953125 C 55.265625 -20.015625 56.066406 -20.046875 56.859375 -20.046875 C 57.460938 -20.015625 57.929688 -20.140625 58.265625 -20.421875 C 58.609375 -20.710938 58.898438 -21.113281 59.140625 -21.625 Z M 59.140625 -21.625 "/></g></g></g><g fill="#8e5f3f" fill-opacity="1"><g transform="translate(91.57508, 81.270079)"><g><path d="M 17.296875 -10.25 C 17.566406 -10.175781 17.707031 -10.078125 17.71875 -9.953125 C 17.738281 -9.828125 17.75 -9.765625 17.75 -9.765625 C 17.4375 -9.210938 17.078125 -8.710938 16.671875 -8.265625 C 15.753906 -7.234375 14.679688 -6.410156 13.453125 -5.796875 C 12.859375 -5.460938 12.1875 -5.285156 11.4375 -5.265625 C 9.695312 -5.234375 8.894531 -6.078125 9.03125 -7.796875 C 9.101562 -8.160156 9.191406 -8.515625 9.296875 -8.859375 C 9.359375 -9.023438 9.398438 -9.195312 9.421875 -9.375 C 9.597656 -9.988281 9.648438 -10.332031 9.578125 -10.40625 C 9.503906 -10.476562 9.296875 -10.300781 8.953125 -9.875 C 8.867188 -9.800781 8.785156 -9.71875 8.703125 -9.625 C 8.179688 -9 7.648438 -8.390625 7.109375 -7.796875 C 6.109375 -6.648438 4.96875 -5.6875 3.6875 -4.90625 C 2.914062 -4.457031 2.101562 -4.21875 1.25 -4.1875 C -0.15625 -4.125 -0.941406 -4.765625 -1.109375 -6.109375 C -1.171875 -6.660156 -1.144531 -7.203125 -1.03125 -7.734375 C -0.457031 -9.941406 0.679688 -11.625 2.390625 -12.78125 C 4.109375 -13.9375 6.070312 -14.34375 8.28125 -14 C 8.90625 -13.820312 9.359375 -13.992188 9.640625 -14.515625 C 9.753906 -14.703125 9.867188 -14.898438 9.984375 -15.109375 C 10.585938 -16.140625 11.175781 -17.164062 11.75 -18.1875 C 12.820312 -20.164062 13.90625 -22.15625 15 -24.15625 C 15.882812 -25.726562 16.765625 -27.3125 17.640625 -28.90625 C 17.898438 -29.394531 18.1875 -29.867188 18.5 -30.328125 C 18.644531 -30.546875 18.820312 -30.675781 19.03125 -30.71875 C 19.25 -30.769531 19.476562 -30.796875 19.71875 -30.796875 C 19.769531 -30.796875 19.828125 -30.796875 19.890625 -30.796875 C 20.148438 -30.796875 20.359375 -30.726562 20.515625 -30.59375 C 20.671875 -30.46875 20.703125 -30.296875 20.609375 -30.078125 C 20.441406 -29.523438 20.238281 -29.003906 20 -28.515625 C 18.8125 -26.128906 17.6875 -23.710938 16.625 -21.265625 C 15.5625 -18.816406 14.519531 -16.351562 13.5 -13.875 C 13.15625 -13.007812 12.8125 -12.148438 12.46875 -11.296875 C 12.039062 -10.296875 11.679688 -9.269531 11.390625 -8.21875 C 11.316406 -7.988281 11.28125 -7.757812 11.28125 -7.53125 C 11.28125 -7.300781 11.390625 -7.101562 11.609375 -6.9375 C 11.753906 -6.84375 11.90625 -6.820312 12.0625 -6.875 C 12.21875 -6.9375 12.382812 -7.007812 12.5625 -7.09375 C 12.59375 -7.125 12.632812 -7.15625 12.6875 -7.1875 C 13.914062 -7.90625 15.039062 -8.765625 16.0625 -9.765625 C 16.238281 -9.929688 16.421875 -10.070312 16.609375 -10.1875 C 16.796875 -10.300781 17.023438 -10.320312 17.296875 -10.25 Z M 7.671875 -11.515625 C 7.816406 -11.742188 7.859375 -11.960938 7.796875 -12.171875 C 7.742188 -12.390625 7.597656 -12.550781 7.359375 -12.65625 C 6.878906 -12.914062 6.367188 -12.953125 5.828125 -12.765625 C 4.484375 -12.359375 3.359375 -11.585938 2.453125 -10.453125 C 1.554688 -9.328125 1.070312 -8.082031 1 -6.71875 C 1.019531 -6.65625 1.03125 -6.609375 1.03125 -6.578125 C 1.03125 -6.460938 1.03125 -6.347656 1.03125 -6.234375 C 1.144531 -5.609375 1.53125 -5.488281 2.1875 -5.875 C 2.84375 -6.257812 3.578125 -6.878906 4.390625 -7.734375 C 5.203125 -8.585938 5.925781 -9.398438 6.5625 -10.171875 C 7.207031 -10.953125 7.578125 -11.398438 7.671875 -11.515625 Z M 7.671875 -11.515625 "/></g></g></g><g fill="#8e5f3f" fill-opacity="1"><g transform="translate(107.854794, 81.270079)"><g><path d="M 9.34375 -11.953125 C 9.226562 -11.054688 8.804688 -10.472656 8.078125 -10.203125 C 7.359375 -9.929688 7.125 -10.289062 7.375 -11.28125 C 7.625 -12.269531 7.175781 -12.519531 6.03125 -12.03125 C 4.894531 -11.539062 3.957031 -10.925781 3.21875 -10.1875 C 2.070312 -9.019531 1.054688 -7.757812 0.171875 -6.40625 C 0.078125 -6.289062 0.0078125 -6.191406 -0.03125 -6.109375 C -0.289062 -5.734375 -0.550781 -5.378906 -0.8125 -5.046875 C -0.988281 -4.804688 -1.1875 -4.65625 -1.40625 -4.59375 C -1.632812 -4.539062 -1.867188 -4.535156 -2.109375 -4.578125 C -2.328125 -4.597656 -2.492188 -4.679688 -2.609375 -4.828125 C -2.722656 -4.972656 -2.738281 -5.144531 -2.65625 -5.34375 C -2.507812 -5.6875 -2.335938 -6.039062 -2.140625 -6.40625 C -0.972656 -8.570312 0.210938 -10.75 1.421875 -12.9375 C 1.441406 -12.957031 1.453125 -12.984375 1.453125 -13.015625 C 1.628906 -13.347656 1.832031 -13.660156 2.0625 -13.953125 C 2.320312 -14.234375 2.617188 -14.347656 2.953125 -14.296875 C 3.296875 -14.242188 3.523438 -14.039062 3.640625 -13.6875 C 3.785156 -13.238281 3.910156 -12.984375 4.015625 -12.921875 C 4.117188 -12.859375 4.351562 -12.898438 4.71875 -13.046875 C 5.488281 -13.335938 6.242188 -13.539062 6.984375 -13.65625 C 7.734375 -13.769531 8.34375 -13.738281 8.8125 -13.5625 C 9.289062 -13.382812 9.46875 -12.847656 9.34375 -11.953125 Z M 9.34375 -11.953125 "/></g></g></g><g fill="#8e5f3f" fill-opacity="1"><g transform="translate(117.591465, 81.270079)"><g><path d="M 7.734375 -8.203125 C 7.046875 -7.378906 6.226562 -6.625 5.28125 -5.9375 C 4.332031 -5.25 3.257812 -4.785156 2.0625 -4.546875 C 0.863281 -4.304688 -0.0625 -4.394531 -0.71875 -4.8125 C -1.382812 -5.226562 -1.515625 -6.148438 -1.109375 -7.578125 C -0.585938 -9.054688 0.125 -10.460938 1.03125 -11.796875 C 1.238281 -12.085938 1.535156 -12.289062 1.921875 -12.40625 C 2.210938 -12.46875 2.460938 -12.414062 2.671875 -12.25 C 2.890625 -12.09375 2.972656 -11.890625 2.921875 -11.640625 C 2.722656 -11.179688 2.503906 -10.71875 2.265625 -10.25 C 2.035156 -9.78125 1.882812 -9.472656 1.8125 -9.328125 C 1.351562 -8.492188 1.035156 -7.625 0.859375 -6.71875 C 0.859375 -6.195312 1.550781 -6.160156 2.9375 -6.609375 C 4.332031 -7.066406 5.679688 -7.90625 6.984375 -9.125 C 8.296875 -10.34375 8.921875 -10.703125 8.859375 -10.203125 C 8.804688 -9.703125 8.429688 -9.035156 7.734375 -8.203125 Z M 4.34375 -14.71875 C 4.28125 -14.664062 4.144531 -14.601562 3.9375 -14.53125 C 3.738281 -14.46875 3.523438 -14.414062 3.296875 -14.375 C 3.066406 -14.34375 2.890625 -14.378906 2.765625 -14.484375 C 2.640625 -14.585938 2.632812 -14.796875 2.75 -15.109375 C 2.957031 -15.660156 3.171875 -16.140625 3.390625 -16.546875 C 3.617188 -16.953125 3.914062 -17.40625 4.28125 -17.90625 C 4.519531 -18.125 4.773438 -18.242188 5.046875 -18.265625 C 5.316406 -18.285156 5.539062 -18.210938 5.71875 -18.046875 C 5.90625 -17.878906 5.957031 -17.65625 5.875 -17.375 C 5.59375 -16.34375 5.082031 -15.457031 4.34375 -14.71875 Z M 4.34375 -14.71875 "/></g></g></g><g fill="#8e5f3f" fill-opacity="1"><g transform="translate(125.186068, 81.270079)"><g><path d="M 14.125 -9.921875 C 14.4375 -9.742188 14.460938 -9.316406 14.203125 -8.640625 C 13.828125 -8.148438 13.421875 -7.691406 12.984375 -7.265625 C 12.554688 -6.835938 12.09375 -6.453125 11.59375 -6.109375 C 11.550781 -6.109375 11.53125 -6.097656 11.53125 -6.078125 C 11.195312 -5.835938 10.835938 -5.632812 10.453125 -5.46875 C 7.347656 -4.351562 5.765625 -5.007812 5.703125 -7.4375 C 4.441406 -6.34375 3.597656 -5.675781 3.171875 -5.4375 C 2.148438 -4.820312 1.039062 -4.546875 -0.15625 -4.609375 C -1.039062 -4.660156 -1.640625 -4.929688 -1.953125 -5.421875 C -2.273438 -5.910156 -2.25 -6.570312 -1.875 -7.40625 C -1.300781 -8.71875 -0.488281 -9.882812 0.5625 -10.90625 C 1.800781 -12.050781 3.171875 -12.96875 4.671875 -13.65625 C 5.472656 -14.050781 6.316406 -14.207031 7.203125 -14.125 C 8.085938 -14.070312 8.617188 -13.570312 8.796875 -12.625 C 8.878906 -12.332031 8.8125 -12.078125 8.59375 -11.859375 C 8.300781 -11.597656 7.96875 -11.539062 7.59375 -11.6875 C 7.570312 -11.6875 7.535156 -11.691406 7.484375 -11.703125 C 7.441406 -11.710938 7.40625 -11.734375 7.375 -11.765625 C 7 -12.285156 6.617188 -12.503906 6.234375 -12.421875 C 5.859375 -12.335938 5.457031 -12.164062 5.03125 -11.90625 C 3.03125 -10.726562 1.539062 -9.097656 0.5625 -7.015625 C 0.507812 -6.921875 0.476562 -6.816406 0.46875 -6.703125 C 0.457031 -6.597656 0.488281 -6.515625 0.5625 -6.453125 C 0.800781 -6.367188 1.0625 -6.378906 1.34375 -6.484375 C 1.625 -6.597656 1.90625 -6.757812 2.1875 -6.96875 C 2.476562 -7.1875 2.722656 -7.367188 2.921875 -7.515625 C 2.941406 -7.554688 2.953125 -7.578125 2.953125 -7.578125 C 3.898438 -8.367188 4.832031 -9.179688 5.75 -10.015625 C 6.144531 -10.441406 6.644531 -10.679688 7.25 -10.734375 C 8.101562 -10.734375 8.457031 -10.347656 8.3125 -9.578125 C 8.238281 -9.296875 8.15625 -9.007812 8.0625 -8.71875 C 7.726562 -7.488281 7.71875 -6.765625 8.03125 -6.546875 C 8.34375 -6.335938 8.816406 -6.335938 9.453125 -6.546875 C 10.097656 -6.765625 10.738281 -7.175781 11.375 -7.78125 C 12.019531 -8.382812 12.5625 -8.9375 13 -9.4375 C 13.445312 -9.9375 13.820312 -10.097656 14.125 -9.921875 Z M 14.125 -9.921875 "/></g></g></g><g fill="#8e5f3f" fill-opacity="1"><g transform="translate(138.096894, 81.270079)"><g><path d="M 15.421875 -9.71875 C 15.628906 -9.457031 15.367188 -8.984375 14.640625 -8.296875 C 13.921875 -7.609375 13.148438 -7.03125 12.328125 -6.5625 C 11.515625 -6.09375 10.566406 -5.625 9.484375 -5.15625 C 8.773438 -4.84375 8.015625 -4.738281 7.203125 -4.84375 C 6.398438 -4.945312 6 -5.429688 6 -6.296875 C 6 -7.171875 6.203125 -8.039062 6.609375 -8.90625 C 7.003906 -9.78125 7.085938 -10.226562 6.859375 -10.25 C 6.640625 -10.28125 6.171875 -10.070312 5.453125 -9.625 C 3.597656 -8.40625 1.867188 -7.007812 0.265625 -5.4375 C -0.160156 -4.914062 -0.703125 -4.628906 -1.359375 -4.578125 C -1.703125 -4.578125 -1.96875 -4.679688 -2.15625 -4.890625 C -2.34375 -5.109375 -2.363281 -5.34375 -2.21875 -5.59375 C -1.070312 -7.707031 0.0820312 -9.796875 1.25 -11.859375 C 1.507812 -12.285156 1.898438 -12.550781 2.421875 -12.65625 C 2.640625 -12.695312 2.84375 -12.628906 3.03125 -12.453125 C 3.21875 -12.273438 3.3125 -12.078125 3.3125 -11.859375 C 3.28125 -11.648438 3.195312 -11.40625 3.0625 -11.125 C 2.988281 -10.957031 2.921875 -10.796875 2.859375 -10.640625 C 2.804688 -10.484375 2.789062 -10.351562 2.8125 -10.25 C 2.832031 -10.144531 2.914062 -10.109375 3.0625 -10.140625 C 3.25 -10.242188 3.441406 -10.359375 3.640625 -10.484375 C 4.128906 -10.765625 4.601562 -11.035156 5.0625 -11.296875 C 5.46875 -11.523438 5.890625 -11.726562 6.328125 -11.90625 C 6.773438 -12.09375 7.238281 -12.222656 7.71875 -12.296875 C 8.488281 -12.347656 9.035156 -12.171875 9.359375 -11.765625 C 9.691406 -11.359375 9.734375 -10.800781 9.484375 -10.09375 C 9.222656 -9.4375 8.953125 -8.789062 8.671875 -8.15625 C 8.316406 -7.5625 8.253906 -7.109375 8.484375 -6.796875 C 8.722656 -6.484375 9.8125 -6.84375 11.75 -7.875 L 13.203125 -8.71875 C 14.578125 -9.601562 15.316406 -9.9375 15.421875 -9.71875 Z M 15.421875 -9.71875 "/></g></g></g><g fill="#8e5f3f" fill-opacity="1"><g transform="translate(152.370854, 81.270079)"><g><path d="M 14.125 -9.921875 C 14.4375 -9.742188 14.460938 -9.316406 14.203125 -8.640625 C 13.828125 -8.148438 13.421875 -7.691406 12.984375 -7.265625 C 12.554688 -6.835938 12.09375 -6.453125 11.59375 -6.109375 C 11.550781 -6.109375 11.53125 -6.097656 11.53125 -6.078125 C 11.195312 -5.835938 10.835938 -5.632812 10.453125 -5.46875 C 7.347656 -4.351562 5.765625 -5.007812 5.703125 -7.4375 C 4.441406 -6.34375 3.597656 -5.675781 3.171875 -5.4375 C 2.148438 -4.820312 1.039062 -4.546875 -0.15625 -4.609375 C -1.039062 -4.660156 -1.640625 -4.929688 -1.953125 -5.421875 C -2.273438 -5.910156 -2.25 -6.570312 -1.875 -7.40625 C -1.300781 -8.71875 -0.488281 -9.882812 0.5625 -10.90625 C 1.800781 -12.050781 3.171875 -12.96875 4.671875 -13.65625 C 5.472656 -14.050781 6.316406 -14.207031 7.203125 -14.125 C 8.085938 -14.070312 8.617188 -13.570312 8.796875 -12.625 C 8.878906 -12.332031 8.8125 -12.078125 8.59375 -11.859375 C 8.300781 -11.597656 7.96875 -11.539062 7.59375 -11.6875 C 7.570312 -11.6875 7.535156 -11.691406 7.484375 -11.703125 C 7.441406 -11.710938 7.40625 -11.734375 7.375 -11.765625 C 7 -12.285156 6.617188 -12.503906 6.234375 -12.421875 C 5.859375 -12.335938 5.457031 -12.164062 5.03125 -11.90625 C 3.03125 -10.726562 1.539062 -9.097656 0.5625 -7.015625 C 0.507812 -6.921875 0.476562 -6.816406 0.46875 -6.703125 C 0.457031 -6.597656 0.488281 -6.515625 0.5625 -6.453125 C 0.800781 -6.367188 1.0625 -6.378906 1.34375 -6.484375 C 1.625 -6.597656 1.90625 -6.757812 2.1875 -6.96875 C 2.476562 -7.1875 2.722656 -7.367188 2.921875 -7.515625 C 2.941406 -7.554688 2.953125 -7.578125 2.953125 -7.578125 C 3.898438 -8.367188 4.832031 -9.179688 5.75 -10.015625 C 6.144531 -10.441406 6.644531 -10.679688 7.25 -10.734375 C 8.101562 -10.734375 8.457031 -10.347656 8.3125 -9.578125 C 8.238281 -9.296875 8.15625 -9.007812 8.0625 -8.71875 C 7.726562 -7.488281 7.71875 -6.765625 8.03125 -6.546875 C 8.34375 -6.335938 8.816406 -6.335938 9.453125 -6.546875 C 10.097656 -6.765625 10.738281 -7.175781 11.375 -7.78125 C 12.019531 -8.382812 12.5625 -8.9375 13 -9.4375 C 13.445312 -9.9375 13.820312 -10.097656 14.125 -9.921875 Z M 14.125 -9.921875 "/></g></g></g><g fill="#8e5f3f" fill-opacity="1"><g transform="translate(165.28168, 81.270079)"><g/></g></g><g fill="#8e5f3f" fill-opacity="1"><g transform="translate(180.003526, 81.270079)"><g><path d="M 17.296875 -10.25 C 17.566406 -10.175781 17.707031 -10.078125 17.71875 -9.953125 C 17.738281 -9.828125 17.75 -9.765625 17.75 -9.765625 C 17.4375 -9.210938 17.078125 -8.710938 16.671875 -8.265625 C 15.753906 -7.234375 14.679688 -6.410156 13.453125 -5.796875 C 12.859375 -5.460938 12.1875 -5.285156 11.4375 -5.265625 C 9.695312 -5.234375 8.894531 -6.078125 9.03125 -7.796875 C 9.101562 -8.160156 9.191406 -8.515625 9.296875 -8.859375 C 9.359375 -9.023438 9.398438 -9.195312 9.421875 -9.375 C 9.597656 -9.988281 9.648438 -10.332031 9.578125 -10.40625 C 9.503906 -10.476562 9.296875 -10.300781 8.953125 -9.875 C 8.867188 -9.800781 8.785156 -9.71875 8.703125 -9.625 C 8.179688 -9 7.648438 -8.390625 7.109375 -7.796875 C 6.109375 -6.648438 4.96875 -5.6875 3.6875 -4.90625 C 2.914062 -4.457031 2.101562 -4.21875 1.25 -4.1875 C -0.15625 -4.125 -0.941406 -4.765625 -1.109375 -6.109375 C -1.171875 -6.660156 -1.144531 -7.203125 -1.03125 -7.734375 C -0.457031 -9.941406 0.679688 -11.625 2.390625 -12.78125 C 4.109375 -13.9375 6.070312 -14.34375 8.28125 -14 C 8.90625 -13.820312 9.359375 -13.992188 9.640625 -14.515625 C 9.753906 -14.703125 9.867188 -14.898438 9.984375 -15.109375 C 10.585938 -16.140625 11.175781 -17.164062 11.75 -18.1875 C 12.820312 -20.164062 13.90625 -22.15625 15 -24.15625 C 15.882812 -25.726562 16.765625 -27.3125 17.640625 -28.90625 C 17.898438 -29.394531 18.1875 -29.867188 18.5 -30.328125 C 18.644531 -30.546875 18.820312 -30.675781 19.03125 -30.71875 C 19.25 -30.769531 19.476562 -30.796875 19.71875 -30.796875 C 19.769531 -30.796875 19.828125 -30.796875 19.890625 -30.796875 C 20.148438 -30.796875 20.359375 -30.726562 20.515625 -30.59375 C 20.671875 -30.46875 20.703125 -30.296875 20.609375 -30.078125 C 20.441406 -29.523438 20.238281 -29.003906 20 -28.515625 C 18.8125 -26.128906 17.6875 -23.710938 16.625 -21.265625 C 15.5625 -18.816406 14.519531 -16.351562 13.5 -13.875 C 13.15625 -13.007812 12.8125 -12.148438 12.46875 -11.296875 C 12.039062 -10.296875 11.679688 -9.269531 11.390625 -8.21875 C 11.316406 -7.988281 11.28125 -7.757812 11.28125 -7.53125 C 11.28125 -7.300781 11.390625 -7.101562 11.609375 -6.9375 C 11.753906 -6.84375 11.90625 -6.820312 12.0625 -6.875 C 12.21875 -6.9375 12.382812 -7.007812 12.5625 -7.09375 C 12.59375 -7.125 12.632812 -7.15625 12.6875 -7.1875 C 13.914062 -7.90625 15.039062 -8.765625 16.0625 -9.765625 C 16.238281 -9.929688 16.421875 -10.070312 16.609375 -10.1875 C 16.796875 -10.300781 17.023438 -10.320312 17.296875 -10.25 Z M 7.671875 -11.515625 C 7.816406 -11.742188 7.859375 -11.960938 7.796875 -12.171875 C 7.742188 -12.390625 7.597656 -12.550781 7.359375 -12.65625 C 6.878906 -12.914062 6.367188 -12.953125 5.828125 -12.765625 C 4.484375 -12.359375 3.359375 -11.585938 2.453125 -10.453125 C 1.554688 -9.328125 1.070312 -8.082031 1 -6.71875 C 1.019531 -6.65625 1.03125 -6.609375 1.03125 -6.578125 C 1.03125 -6.460938 1.03125 -6.347656 1.03125 -6.234375 C 1.144531 -5.609375 1.53125 -5.488281 2.1875 -5.875 C 2.84375 -6.257812 3.578125 -6.878906 4.390625 -7.734375 C 5.203125 -8.585938 5.925781 -9.398438 6.5625 -10.171875 C 7.207031 -10.953125 7.578125 -11.398438 7.671875 -11.515625 Z M 7.671875 -11.515625 "/></g></g></g><g fill="#8e5f3f" fill-opacity="1"><g transform="translate(196.28324, 81.270079)"><g><path d="M 3.09375 -4.609375 L 3.03125 -4.609375 C 1.15625 -4.640625 -0.078125 -5.0625 -0.671875 -5.875 C -1.273438 -6.6875 -1.253906 -7.765625 -0.609375 -9.109375 C -0.0546875 -10.140625 0.628906 -11.035156 1.453125 -11.796875 C 1.742188 -12.054688 2.035156 -12.265625 2.328125 -12.421875 C 2.628906 -12.578125 2.96875 -12.65625 3.34375 -12.65625 C 3.570312 -12.695312 3.828125 -12.660156 4.109375 -12.546875 C 4.203125 -12.515625 4.289062 -12.484375 4.375 -12.453125 C 4.601562 -12.484375 4.820312 -12.550781 5.03125 -12.65625 C 5.082031 -12.695312 5.148438 -12.734375 5.234375 -12.765625 C 5.660156 -12.929688 6.117188 -13 6.609375 -12.96875 C 6.796875 -12.96875 6.992188 -12.96875 7.203125 -12.96875 C 7.972656 -12.851562 8.550781 -12.53125 8.9375 -12 C 9.332031 -11.476562 9.46875 -10.84375 9.34375 -10.09375 C 9.28125 -9.632812 9.140625 -9.203125 8.921875 -8.796875 C 7.429688 -6.128906 5.53125 -4.734375 3.21875 -4.609375 Z M 6.171875 -11.59375 C 5.148438 -11.625 4.238281 -11.328125 3.4375 -10.703125 C 2.632812 -10.078125 2.039062 -9.351562 1.65625 -8.53125 C 1.269531 -7.707031 1.160156 -7.03125 1.328125 -6.5 C 1.503906 -5.976562 2.046875 -5.835938 2.953125 -6.078125 C 3.984375 -6.390625 4.890625 -6.972656 5.671875 -7.828125 C 6.460938 -8.679688 6.941406 -9.492188 7.109375 -10.265625 C 7.285156 -11.046875 6.972656 -11.488281 6.171875 -11.59375 Z M 6.171875 -11.59375 "/></g></g></g><g fill="#8e5f3f" fill-opacity="1"><g transform="translate(206.623584, 81.270079)"><g/></g></g><g fill="#8e5f3f" fill-opacity="1"><g transform="translate(221.345431, 81.270079)"><g><path d="M 108.71875 -50.96875 C 108.382812 -50.894531 108.082031 -50.90625 107.8125 -51 C 107.539062 -51.101562 107.285156 -51.222656 107.046875 -51.359375 C 106.929688 -51.410156 106.835938 -51.46875 106.765625 -51.53125 C 103.453125 -53.320312 99.9375 -54.664062 96.21875 -55.5625 C 86.5625 -57.875 76.71875 -56.914062 66.6875 -52.6875 C 63.03125 -51.144531 59.519531 -49.285156 56.15625 -47.109375 C 52.800781 -44.941406 49.53125 -42.570312 46.34375 -40 C 41.195312 -35.832031 36.457031 -31.269531 32.125 -26.3125 C 27.800781 -21.351562 23.8125 -16.0625 20.15625 -10.4375 C 18.832031 -8.4375 17.5625 -6.410156 16.34375 -4.359375 C 16.3125 -4.296875 16.28125 -4.238281 16.25 -4.1875 C 15.3125 -2.726562 14.546875 -1.179688 13.953125 0.453125 C 13.660156 1.210938 13.300781 1.9375 12.875 2.625 C 12.351562 3.539062 11.640625 3.882812 10.734375 3.65625 C 10.210938 3.539062 10 3.210938 10.09375 2.671875 C 10.144531 2.265625 10.265625 1.878906 10.453125 1.515625 C 11.429688 -0.398438 12.289062 -2.34375 13.03125 -4.3125 C 13.78125 -6.28125 14.484375 -8.265625 15.140625 -10.265625 C 15.304688 -10.785156 15.476562 -11.285156 15.65625 -11.765625 C 19.5625 -23.210938 23.1875 -34.742188 26.53125 -46.359375 C 26.59375 -46.609375 26.640625 -46.859375 26.671875 -47.109375 C 26.671875 -47.234375 26.679688 -47.363281 26.703125 -47.5 C 26.390625 -47.476562 26.148438 -47.378906 25.984375 -47.203125 C 25.816406 -47.023438 25.675781 -46.828125 25.5625 -46.609375 C 25.53125 -46.515625 25.484375 -46.429688 25.421875 -46.359375 C 25.222656 -46.066406 25.039062 -45.757812 24.875 -45.4375 C 22.976562 -42.476562 21.085938 -39.5 19.203125 -36.5 C 16.265625 -31.695312 13.320312 -26.894531 10.375 -22.09375 C 6.125 -15.15625 1.84375 -8.203125 -2.46875 -1.234375 C -3.414062 0.316406 -4.414062 1.816406 -5.46875 3.265625 C -5.726562 3.648438 -5.96875 4.007812 -6.1875 4.34375 C -6.59375 5.007812 -7.15625 5.410156 -7.875 5.546875 C -8.082031 5.578125 -8.269531 5.566406 -8.4375 5.515625 C -8.601562 5.472656 -8.710938 5.367188 -8.765625 5.203125 C -8.828125 5.085938 -8.828125 4.953125 -8.765625 4.796875 C -8.710938 4.640625 -8.640625 4.5 -8.546875 4.375 C 1.734375 -12.445312 12.039062 -29.253906 22.375 -46.046875 C 23.320312 -47.535156 24.320312 -48.992188 25.375 -50.421875 C 25.613281 -50.734375 25.828125 -51.046875 26.015625 -51.359375 C 26.617188 -52.242188 27.40625 -52.816406 28.375 -53.078125 C 28.976562 -53.191406 29.453125 -53.101562 29.796875 -52.8125 C 30.140625 -52.53125 30.296875 -52.070312 30.265625 -51.4375 C 30.097656 -49.582031 29.726562 -47.742188 29.15625 -45.921875 C 26.320312 -36.148438 23.289062 -26.441406 20.0625 -16.796875 C 20.03125 -16.671875 19.992188 -16.566406 19.953125 -16.484375 C 19.828125 -16.191406 19.742188 -15.898438 19.703125 -15.609375 C 19.660156 -15.328125 19.722656 -15.019531 19.890625 -14.6875 C 20.117188 -15 20.351562 -15.296875 20.59375 -15.578125 C 21.070312 -16.179688 21.523438 -16.78125 21.953125 -17.375 C 27.046875 -24.582031 32.84375 -31.113281 39.34375 -36.96875 C 43.082031 -40.332031 46.960938 -43.4375 50.984375 -46.28125 C 55.003906 -49.125 59.226562 -51.554688 63.65625 -53.578125 C 72.789062 -57.671875 81.96875 -59.191406 91.1875 -58.140625 C 97.019531 -57.421875 102.453125 -55.734375 107.484375 -53.078125 C 107.597656 -53.023438 107.726562 -52.96875 107.875 -52.90625 C 108.132812 -52.78125 108.375 -52.644531 108.59375 -52.5 C 108.820312 -52.363281 109.007812 -52.15625 109.15625 -51.875 C 109.175781 -51.820312 109.1875 -51.742188 109.1875 -51.640625 C 109.1875 -51.546875 109.175781 -51.453125 109.15625 -51.359375 C 109.101562 -51.273438 109.039062 -51.195312 108.96875 -51.125 C 108.894531 -51.050781 108.8125 -51 108.71875 -50.96875 Z M 108.71875 -50.96875 "/></g></g></g><g fill="#8e5f3f" fill-opacity="1"><g transform="translate(249.581777, 81.270079)"><g><path d="M 14.125 -9.921875 C 14.4375 -9.742188 14.460938 -9.316406 14.203125 -8.640625 C 13.828125 -8.148438 13.421875 -7.691406 12.984375 -7.265625 C 12.554688 -6.835938 12.09375 -6.453125 11.59375 -6.109375 C 11.550781 -6.109375 11.53125 -6.097656 11.53125 -6.078125 C 11.195312 -5.835938 10.835938 -5.632812 10.453125 -5.46875 C 7.347656 -4.351562 5.765625 -5.007812 5.703125 -7.4375 C 4.441406 -6.34375 3.597656 -5.675781 3.171875 -5.4375 C 2.148438 -4.820312 1.039062 -4.546875 -0.15625 -4.609375 C -1.039062 -4.660156 -1.640625 -4.929688 -1.953125 -5.421875 C -2.273438 -5.910156 -2.25 -6.570312 -1.875 -7.40625 C -1.300781 -8.71875 -0.488281 -9.882812 0.5625 -10.90625 C 1.800781 -12.050781 3.171875 -12.96875 4.671875 -13.65625 C 5.472656 -14.050781 6.316406 -14.207031 7.203125 -14.125 C 8.085938 -14.070312 8.617188 -13.570312 8.796875 -12.625 C 8.878906 -12.332031 8.8125 -12.078125 8.59375 -11.859375 C 8.300781 -11.597656 7.96875 -11.539062 7.59375 -11.6875 C 7.570312 -11.6875 7.535156 -11.691406 7.484375 -11.703125 C 7.441406 -11.710938 7.40625 -11.734375 7.375 -11.765625 C 7 -12.285156 6.617188 -12.503906 6.234375 -12.421875 C 5.859375 -12.335938 5.457031 -12.164062 5.03125 -11.90625 C 3.03125 -10.726562 1.539062 -9.097656 0.5625 -7.015625 C 0.507812 -6.921875 0.476562 -6.816406 0.46875 -6.703125 C 0.457031 -6.597656 0.488281 -6.515625 0.5625 -6.453125 C 0.800781 -6.367188 1.0625 -6.378906 1.34375 -6.484375 C 1.625 -6.597656 1.90625 -6.757812 2.1875 -6.96875 C 2.476562 -7.1875 2.722656 -7.367188 2.921875 -7.515625 C 2.941406 -7.554688 2.953125 -7.578125 2.953125 -7.578125 C 3.898438 -8.367188 4.832031 -9.179688 5.75 -10.015625 C 6.144531 -10.441406 6.644531 -10.679688 7.25 -10.734375 C 8.101562 -10.734375 8.457031 -10.347656 8.3125 -9.578125 C 8.238281 -9.296875 8.15625 -9.007812 8.0625 -8.71875 C 7.726562 -7.488281 7.71875 -6.765625 8.03125 -6.546875 C 8.34375 -6.335938 8.816406 -6.335938 9.453125 -6.546875 C 10.097656 -6.765625 10.738281 -7.175781 11.375 -7.78125 C 12.019531 -8.382812 12.5625 -8.9375 13 -9.4375 C 13.445312 -9.9375 13.820312 -10.097656 14.125 -9.921875 Z M 14.125 -9.921875 "/></g></g></g><g fill="#8e5f3f" fill-opacity="1"><g transform="translate(262.492602, 81.270079)"><g><path d="M 9.421875 -9.875 C 7.367188 -9.101562 5.890625 -8.476562 4.984375 -8 C 4.328125 -7.675781 3.945312 -7.40625 3.84375 -7.1875 C 3.75 -6.976562 3.828125 -6.585938 4.078125 -6.015625 C 4.078125 -5.992188 4.09375 -5.957031 4.125 -5.90625 C 4.414062 -5.21875 4.585938 -4.503906 4.640625 -3.765625 C 4.722656 -2.265625 3.453125 -1.21875 0.828125 -0.625 C -1.796875 -0.03125 -3.550781 -0.0078125 -4.4375 -0.5625 C -5.332031 -1.125 -5.609375 -1.832031 -5.265625 -2.6875 C -4.921875 -3.539062 -4.023438 -4.410156 -2.578125 -5.296875 C -1.140625 -6.179688 -0.179688 -6.816406 0.296875 -7.203125 C 0.785156 -7.597656 0.929688 -8.035156 0.734375 -8.515625 C 0.671875 -8.679688 0.601562 -8.847656 0.53125 -9.015625 C 0.351562 -9.421875 0.175781 -9.835938 0 -10.265625 C -0.332031 -11.046875 -0.476562 -11.8125 -0.4375 -12.5625 C -0.394531 -13.3125 -0.117188 -13.941406 0.390625 -14.453125 C 0.910156 -14.972656 1.707031 -15.253906 2.78125 -15.296875 C 3.394531 -15.316406 3.941406 -15.234375 4.421875 -15.046875 C 4.898438 -14.859375 5.285156 -14.507812 5.578125 -14 C 5.804688 -13.65625 5.734375 -13.335938 5.359375 -13.046875 C 5.109375 -12.859375 4.84375 -12.832031 4.5625 -12.96875 C 4.375 -13.050781 4.195312 -13.160156 4.03125 -13.296875 C 4.03125 -13.335938 4.03125 -13.359375 4.03125 -13.359375 C 3.957031 -13.410156 3.882812 -13.460938 3.8125 -13.515625 C 3.738281 -13.628906 3.65625 -13.722656 3.5625 -13.796875 C 3.226562 -14.035156 2.890625 -14.109375 2.546875 -14.015625 C 2.203125 -13.921875 1.941406 -13.65625 1.765625 -13.21875 C 1.648438 -12.882812 1.59375 -12.539062 1.59375 -12.1875 C 1.625 -11.757812 1.722656 -11.347656 1.890625 -10.953125 C 2.003906 -10.703125 2.109375 -10.472656 2.203125 -10.265625 C 2.421875 -9.691406 2.597656 -9.296875 2.734375 -9.078125 C 2.878906 -8.867188 3.050781 -8.78125 3.25 -8.8125 C 3.457031 -8.84375 5.300781 -9.503906 8.78125 -10.796875 C 9.539062 -11.035156 9.753906 -10.726562 9.421875 -9.875 Z M 1 -2.4375 C 1.90625 -2.75 2.285156 -3.359375 2.140625 -4.265625 C 2.140625 -4.328125 2.128906 -4.398438 2.109375 -4.484375 C 2.054688 -4.972656 1.953125 -5.347656 1.796875 -5.609375 C 1.640625 -5.878906 1.285156 -5.875 0.734375 -5.59375 C -0.609375 -4.820312 -1.851562 -3.925781 -3 -2.90625 C -3.070312 -2.8125 -3.144531 -2.726562 -3.21875 -2.65625 C -3.21875 -2.65625 -3.226562 -2.632812 -3.25 -2.59375 C -3.332031 -2.488281 -3.347656 -2.367188 -3.296875 -2.234375 C -3.242188 -2.109375 -3.125 -2.046875 -2.9375 -2.046875 C -1.601562 -1.835938 -0.289062 -1.96875 1 -2.4375 Z M 1 -2.4375 "/></g></g></g><g fill="#8e5f3f" fill-opacity="1"><g transform="translate(271.119293, 81.270079)"><g><path d="M 14.046875 -10.140625 C 14.109375 -10.140625 14.179688 -10.125 14.265625 -10.09375 C 14.347656 -10.0625 14.414062 -10.019531 14.46875 -9.96875 C 14.65625 -9.800781 14.675781 -9.601562 14.53125 -9.375 C 14.34375 -9.175781 14.164062 -9.003906 14 -8.859375 C 13 -7.941406 11.890625 -7.171875 10.671875 -6.546875 C 8.753906 -5.566406 6.640625 -5.066406 4.328125 -5.046875 C 3.460938 -5.015625 2.578125 -5.15625 1.671875 -5.46875 C 0.015625 -6.125 -0.65625 -7.328125 -0.34375 -9.078125 C 0.03125 -10.703125 0.941406 -12.046875 2.390625 -13.109375 C 3.847656 -14.179688 5.410156 -14.648438 7.078125 -14.515625 C 7.378906 -14.460938 7.6875 -14.390625 8 -14.296875 C 8.289062 -14.179688 8.503906 -14.007812 8.640625 -13.78125 C 8.785156 -13.550781 8.800781 -13.363281 8.6875 -13.21875 C 8.375 -12.882812 8.015625 -12.800781 7.609375 -12.96875 C 7.015625 -13.226562 6.46875 -13.300781 5.96875 -13.1875 C 5.46875 -13.070312 4.960938 -12.800781 4.453125 -12.375 C 3.960938 -11.988281 3.429688 -11.4375 2.859375 -10.71875 C 2.285156 -10.007812 1.921875 -9.289062 1.765625 -8.5625 C 1.609375 -7.84375 1.9375 -7.253906 2.75 -6.796875 C 3.65625 -6.390625 4.582031 -6.289062 5.53125 -6.5 C 7.894531 -6.976562 10.085938 -7.875 12.109375 -9.1875 C 12.296875 -9.28125 12.460938 -9.382812 12.609375 -9.5 C 12.828125 -9.675781 13.046875 -9.816406 13.265625 -9.921875 C 13.492188 -10.035156 13.753906 -10.109375 14.046875 -10.140625 Z M 14.046875 -10.140625 "/></g></g></g><g fill="#8e5f3f" fill-opacity="1"><g transform="translate(284.108012, 81.270079)"><g><path d="M 7.734375 -8.203125 C 7.046875 -7.378906 6.226562 -6.625 5.28125 -5.9375 C 4.332031 -5.25 3.257812 -4.785156 2.0625 -4.546875 C 0.863281 -4.304688 -0.0625 -4.394531 -0.71875 -4.8125 C -1.382812 -5.226562 -1.515625 -6.148438 -1.109375 -7.578125 C -0.585938 -9.054688 0.125 -10.460938 1.03125 -11.796875 C 1.238281 -12.085938 1.535156 -12.289062 1.921875 -12.40625 C 2.210938 -12.46875 2.460938 -12.414062 2.671875 -12.25 C 2.890625 -12.09375 2.972656 -11.890625 2.921875 -11.640625 C 2.722656 -11.179688 2.503906 -10.71875 2.265625 -10.25 C 2.035156 -9.78125 1.882812 -9.472656 1.8125 -9.328125 C 1.351562 -8.492188 1.035156 -7.625 0.859375 -6.71875 C 0.859375 -6.195312 1.550781 -6.160156 2.9375 -6.609375 C 4.332031 -7.066406 5.679688 -7.90625 6.984375 -9.125 C 8.296875 -10.34375 8.921875 -10.703125 8.859375 -10.203125 C 8.804688 -9.703125 8.429688 -9.035156 7.734375 -8.203125 Z M 4.34375 -14.71875 C 4.28125 -14.664062 4.144531 -14.601562 3.9375 -14.53125 C 3.738281 -14.46875 3.523438 -14.414062 3.296875 -14.375 C 3.066406 -14.34375 2.890625 -14.378906 2.765625 -14.484375 C 2.640625 -14.585938 2.632812 -14.796875 2.75 -15.109375 C 2.957031 -15.660156 3.171875 -16.140625 3.390625 -16.546875 C 3.617188 -16.953125 3.914062 -17.40625 4.28125 -17.90625 C 4.519531 -18.125 4.773438 -18.242188 5.046875 -18.265625 C 5.316406 -18.285156 5.539062 -18.210938 5.71875 -18.046875 C 5.90625 -17.878906 5.957031 -17.65625 5.875 -17.375 C 5.59375 -16.34375 5.082031 -15.457031 4.34375 -14.71875 Z M 4.34375 -14.71875 "/></g></g></g><g fill="#8e5f3f" fill-opacity="1"><g transform="translate(291.702615, 81.270079)"><g><path d="M 20.359375 -9.765625 C 20.804688 -10.046875 21.160156 -10.113281 21.421875 -9.96875 C 21.679688 -9.832031 21.585938 -9.429688 21.140625 -8.765625 C 20.566406 -7.992188 19.539062 -7.171875 18.0625 -6.296875 C 16.59375 -5.429688 15.289062 -5.054688 14.15625 -5.171875 C 13.03125 -5.285156 12.703125 -6.117188 13.171875 -7.671875 C 13.648438 -9.234375 13.90625 -10.109375 13.9375 -10.296875 C 13.976562 -10.484375 13.941406 -10.585938 13.828125 -10.609375 C 13.722656 -10.640625 13.46875 -10.507812 13.0625 -10.21875 C 11.894531 -9.414062 10.753906 -8.570312 9.640625 -7.6875 C 9.160156 -7.320312 8.6875 -6.941406 8.21875 -6.546875 C 7.9375 -6.285156 7.640625 -6.023438 7.328125 -5.765625 C 7.328125 -5.765625 7.3125 -5.75 7.28125 -5.71875 C 6.945312 -5.382812 6.53125 -5.160156 6.03125 -5.046875 C 5.8125 -4.984375 5.578125 -4.957031 5.328125 -4.96875 C 5.085938 -4.988281 4.882812 -5.085938 4.71875 -5.265625 C 4.519531 -5.453125 4.445312 -5.648438 4.5 -5.859375 C 4.550781 -6.078125 4.710938 -6.398438 4.984375 -6.828125 C 5.253906 -7.265625 5.554688 -7.738281 5.890625 -8.25 C 6.222656 -8.757812 6.40625 -9.070312 6.4375 -9.1875 C 6.476562 -9.3125 6.460938 -9.429688 6.390625 -9.546875 C 6.296875 -9.660156 6.191406 -9.691406 6.078125 -9.640625 C 5.972656 -9.597656 5.5625 -9.320312 4.84375 -8.8125 C 4.132812 -8.300781 3.160156 -7.582031 1.921875 -6.65625 C 1.359375 -6.226562 0.800781 -5.789062 0.25 -5.34375 C 0.101562 -5.195312 -0.0507812 -5.066406 -0.21875 -4.953125 C -0.613281 -4.609375 -1.050781 -4.425781 -1.53125 -4.40625 C -1.882812 -4.375 -2.144531 -4.445312 -2.3125 -4.625 C -2.488281 -4.8125 -2.515625 -5.0625 -2.390625 -5.375 C -2.316406 -5.601562 -2.222656 -5.816406 -2.109375 -6.015625 C -2.035156 -6.109375 -1.988281 -6.203125 -1.96875 -6.296875 C -0.9375 -8.367188 0.078125 -10.453125 1.078125 -12.546875 C 1.097656 -12.597656 1.125 -12.671875 1.15625 -12.765625 C 1.269531 -12.984375 1.382812 -13.195312 1.5 -13.40625 C 1.8125 -13.738281 2.179688 -13.847656 2.609375 -13.734375 C 3.097656 -13.585938 3.285156 -13.300781 3.171875 -12.875 C 2.941406 -12.226562 2.71875 -11.585938 2.5 -10.953125 C 2.375 -10.660156 2.253906 -10.375 2.140625 -10.09375 C 1.941406 -9.582031 1.878906 -9.253906 1.953125 -9.109375 C 2.023438 -8.972656 2.347656 -9.070312 2.921875 -9.40625 C 3.304688 -9.664062 3.691406 -9.925781 4.078125 -10.1875 C 4.523438 -10.5 4.960938 -10.785156 5.390625 -11.046875 C 6.054688 -11.441406 6.734375 -11.785156 7.421875 -12.078125 C 7.753906 -12.222656 8.097656 -12.328125 8.453125 -12.390625 C 8.816406 -12.460938 9.15625 -12.382812 9.46875 -12.15625 C 9.695312 -11.957031 9.796875 -11.734375 9.765625 -11.484375 C 9.734375 -11.242188 9.664062 -11.015625 9.5625 -10.796875 C 9.382812 -10.359375 9.3125 -10.082031 9.34375 -9.96875 C 9.375 -9.851562 9.472656 -9.832031 9.640625 -9.90625 C 9.804688 -9.976562 10.101562 -10.144531 10.53125 -10.40625 C 10.96875 -10.664062 11.429688 -10.953125 11.921875 -11.265625 C 12.546875 -11.660156 13.203125 -12.039062 13.890625 -12.40625 C 14.460938 -12.78125 15.070312 -13.007812 15.71875 -13.09375 C 16.613281 -13.15625 16.976562 -12.789062 16.8125 -12 C 16.65625 -11.21875 16.34375 -10.285156 15.875 -9.203125 C 15.40625 -8.117188 15.351562 -7.453125 15.71875 -7.203125 C 16.09375 -6.960938 16.914062 -7.296875 18.1875 -8.203125 C 19.457031 -9.117188 20.179688 -9.640625 20.359375 -9.765625 Z M 20.359375 -9.765625 "/></g></g></g><g fill="#8e5f3f" fill-opacity="1"><g transform="translate(312.305411, 81.270079)"><g><path d="M 11.09375 -7.484375 C 10.34375 -6.742188 9.46875 -6.109375 8.46875 -5.578125 C 7.46875 -5.054688 6.628906 -4.710938 5.953125 -4.546875 C 5.285156 -4.378906 4.59375 -4.285156 3.875 -4.265625 C 2.726562 -4.210938 1.675781 -4.367188 0.71875 -4.734375 C -0.851562 -5.367188 -1.398438 -6.582031 -0.921875 -8.375 C -0.460938 -9.914062 0.457031 -11.117188 1.84375 -11.984375 C 3.238281 -12.859375 4.675781 -13.285156 6.15625 -13.265625 C 6.15625 -13.265625 6.164062 -13.265625 6.1875 -13.265625 C 6.570312 -13.285156 6.929688 -13.257812 7.265625 -13.1875 C 7.835938 -12.976562 8.203125 -12.640625 8.359375 -12.171875 C 8.515625 -11.703125 8.410156 -11.179688 8.046875 -10.609375 C 7.210938 -9.347656 6.082031 -8.648438 4.65625 -8.515625 C 3.707031 -8.421875 2.789062 -8.460938 1.90625 -8.640625 C 1.738281 -8.671875 1.585938 -8.628906 1.453125 -8.515625 C 1.328125 -8.398438 1.253906 -8.253906 1.234375 -8.078125 C 0.972656 -6.960938 1.316406 -6.25 2.265625 -5.9375 C 3.429688 -5.539062 4.644531 -5.539062 5.90625 -5.9375 C 7.351562 -6.394531 8.734375 -7.253906 10.046875 -8.515625 C 11.359375 -9.773438 12.113281 -10.359375 12.3125 -10.265625 C 12.519531 -10.179688 12.582031 -9.941406 12.5 -9.546875 C 12.320312 -8.910156 11.851562 -8.222656 11.09375 -7.484375 Z M 2.8125 -10.609375 C 2.726562 -10.523438 2.671875 -10.425781 2.640625 -10.3125 C 2.609375 -10.195312 2.648438 -10.097656 2.765625 -10.015625 C 3.222656 -9.753906 3.71875 -9.660156 4.25 -9.734375 C 4.78125 -9.804688 5.226562 -10.003906 5.59375 -10.328125 C 5.96875 -10.660156 6.128906 -11.066406 6.078125 -11.546875 C 6.035156 -11.710938 5.941406 -11.816406 5.796875 -11.859375 C 5.660156 -11.910156 5.519531 -11.925781 5.375 -11.90625 C 4.414062 -11.726562 3.5625 -11.296875 2.8125 -10.609375 Z M 2.8125 -10.609375 "/></g></g></g><g fill="#8e5f3f" fill-opacity="1"><g transform="translate(323.638896, 81.270079)"><g><path d="M 15.421875 -9.71875 C 15.628906 -9.457031 15.367188 -8.984375 14.640625 -8.296875 C 13.921875 -7.609375 13.148438 -7.03125 12.328125 -6.5625 C 11.515625 -6.09375 10.566406 -5.625 9.484375 -5.15625 C 8.773438 -4.84375 8.015625 -4.738281 7.203125 -4.84375 C 6.398438 -4.945312 6 -5.429688 6 -6.296875 C 6 -7.171875 6.203125 -8.039062 6.609375 -8.90625 C 7.003906 -9.78125 7.085938 -10.226562 6.859375 -10.25 C 6.640625 -10.28125 6.171875 -10.070312 5.453125 -9.625 C 3.597656 -8.40625 1.867188 -7.007812 0.265625 -5.4375 C -0.160156 -4.914062 -0.703125 -4.628906 -1.359375 -4.578125 C -1.703125 -4.578125 -1.96875 -4.679688 -2.15625 -4.890625 C -2.34375 -5.109375 -2.363281 -5.34375 -2.21875 -5.59375 C -1.070312 -7.707031 0.0820312 -9.796875 1.25 -11.859375 C 1.507812 -12.285156 1.898438 -12.550781 2.421875 -12.65625 C 2.640625 -12.695312 2.84375 -12.628906 3.03125 -12.453125 C 3.21875 -12.273438 3.3125 -12.078125 3.3125 -11.859375 C 3.28125 -11.648438 3.195312 -11.40625 3.0625 -11.125 C 2.988281 -10.957031 2.921875 -10.796875 2.859375 -10.640625 C 2.804688 -10.484375 2.789062 -10.351562 2.8125 -10.25 C 2.832031 -10.144531 2.914062 -10.109375 3.0625 -10.140625 C 3.25 -10.242188 3.441406 -10.359375 3.640625 -10.484375 C 4.128906 -10.765625 4.601562 -11.035156 5.0625 -11.296875 C 5.46875 -11.523438 5.890625 -11.726562 6.328125 -11.90625 C 6.773438 -12.09375 7.238281 -12.222656 7.71875 -12.296875 C 8.488281 -12.347656 9.035156 -12.171875 9.359375 -11.765625 C 9.691406 -11.359375 9.734375 -10.800781 9.484375 -10.09375 C 9.222656 -9.4375 8.953125 -8.789062 8.671875 -8.15625 C 8.316406 -7.5625 8.253906 -7.109375 8.484375 -6.796875 C 8.722656 -6.484375 9.8125 -6.84375 11.75 -7.875 L 13.203125 -8.71875 C 14.578125 -9.601562 15.316406 -9.9375 15.421875 -9.71875 Z M 15.421875 -9.71875 "/></g></g></g><g fill="#8e5f3f" fill-opacity="1"><g transform="translate(337.912855, 81.270079)"><g><path d="M 12.171875 -9.40625 C 10.429688 -7.351562 8.726562 -5.835938 7.0625 -4.859375 C 5.394531 -3.890625 3.609375 -3.570312 1.703125 -3.90625 C -0.203125 -4.238281 -0.984375 -5.515625 -0.640625 -7.734375 C -0.410156 -8.847656 -0.09375 -9.9375 0.3125 -11 C 1.3125 -13.476562 2.320312 -15.945312 3.34375 -18.40625 C 3.6875 -19.289062 4.046875 -20.179688 4.421875 -21.078125 C 4.515625 -21.273438 4.597656 -21.46875 4.671875 -21.65625 C 4.816406 -21.976562 4.960938 -22.3125 5.109375 -22.65625 C 5.316406 -23.226562 5.085938 -23.523438 4.421875 -23.546875 C 4.046875 -23.546875 3.675781 -23.546875 3.3125 -23.546875 C 3.144531 -23.546875 2.957031 -23.546875 2.75 -23.546875 C 2.550781 -23.523438 2.347656 -23.5 2.140625 -23.46875 C 1.804688 -23.445312 1.472656 -23.4375 1.140625 -23.4375 C 0.804688 -23.4375 0.5 -23.519531 0.21875 -23.6875 C 0.132812 -23.707031 0.0703125 -23.753906 0.03125 -23.828125 C -0.0078125 -23.898438 -0.03125 -23.984375 -0.03125 -24.078125 C -0.0078125 -24.128906 0.0234375 -24.1875 0.078125 -24.25 C 0.140625 -24.320312 0.21875 -24.375 0.3125 -24.40625 C 0.59375 -24.519531 0.890625 -24.601562 1.203125 -24.65625 C 2.015625 -24.695312 2.816406 -24.726562 3.609375 -24.75 C 3.921875 -24.75 4.191406 -24.75 4.421875 -24.75 C 4.941406 -24.75 5.328125 -24.769531 5.578125 -24.8125 C 5.828125 -24.851562 6.03125 -24.988281 6.1875 -25.21875 C 6.34375 -25.457031 6.523438 -25.816406 6.734375 -26.296875 C 6.859375 -26.554688 7.003906 -26.84375 7.171875 -27.15625 C 7.597656 -28.0625 8.023438 -28.988281 8.453125 -29.9375 C 8.648438 -30.363281 8.851562 -30.78125 9.0625 -31.1875 C 9.226562 -31.582031 9.492188 -31.894531 9.859375 -32.125 C 10.203125 -32.289062 10.503906 -32.273438 10.765625 -32.078125 C 10.847656 -32.023438 10.910156 -31.941406 10.953125 -31.828125 C 11.003906 -31.710938 11.03125 -31.609375 11.03125 -31.515625 C 11.03125 -31.003906 10.898438 -30.503906 10.640625 -30.015625 C 10.585938 -29.910156 10.523438 -29.785156 10.453125 -29.640625 C 10.285156 -29.171875 10.109375 -28.695312 9.921875 -28.21875 C 9.535156 -27.34375 9.175781 -26.441406 8.84375 -25.515625 C 8.75 -25.347656 8.742188 -25.195312 8.828125 -25.0625 C 8.910156 -24.9375 9.039062 -24.875 9.21875 -24.875 C 10.132812 -24.84375 11.035156 -24.828125 11.921875 -24.828125 C 12.378906 -24.828125 12.832031 -24.828125 13.28125 -24.828125 C 14.707031 -24.804688 15.28125 -24.609375 15 -24.234375 C 14.800781 -24.015625 14.585938 -23.882812 14.359375 -23.84375 C 14.140625 -23.8125 13.910156 -23.816406 13.671875 -23.859375 C 13.523438 -23.859375 13.382812 -23.859375 13.25 -23.859375 C 11.789062 -23.765625 10.347656 -23.707031 8.921875 -23.6875 C 8.253906 -23.6875 7.8125 -23.390625 7.59375 -22.796875 C 7.363281 -22.222656 7.140625 -21.648438 6.921875 -21.078125 C 6.585938 -20.328125 6.28125 -19.59375 6 -18.875 C 5.71875 -18.195312 5.429688 -17.515625 5.140625 -16.828125 C 4.398438 -15.085938 3.6875 -13.34375 3 -11.59375 C 2.570312 -10.445312 2.234375 -9.273438 1.984375 -8.078125 C 1.441406 -5.910156 2.28125 -5.082031 4.5 -5.59375 C 6.675781 -6.113281 8.960938 -7.679688 11.359375 -10.296875 C 12.390625 -10.960938 12.660156 -10.664062 12.171875 -9.40625 Z M 12.171875 -9.40625 "/></g></g></g><g fill="#8e5f3f" fill-opacity="1"><g transform="translate(348.973714, 81.270079)"><g><path d="M 3.09375 -4.609375 L 3.03125 -4.609375 C 1.15625 -4.640625 -0.078125 -5.0625 -0.671875 -5.875 C -1.273438 -6.6875 -1.253906 -7.765625 -0.609375 -9.109375 C -0.0546875 -10.140625 0.628906 -11.035156 1.453125 -11.796875 C 1.742188 -12.054688 2.035156 -12.265625 2.328125 -12.421875 C 2.628906 -12.578125 2.96875 -12.65625 3.34375 -12.65625 C 3.570312 -12.695312 3.828125 -12.660156 4.109375 -12.546875 C 4.203125 -12.515625 4.289062 -12.484375 4.375 -12.453125 C 4.601562 -12.484375 4.820312 -12.550781 5.03125 -12.65625 C 5.082031 -12.695312 5.148438 -12.734375 5.234375 -12.765625 C 5.660156 -12.929688 6.117188 -13 6.609375 -12.96875 C 6.796875 -12.96875 6.992188 -12.96875 7.203125 -12.96875 C 7.972656 -12.851562 8.550781 -12.53125 8.9375 -12 C 9.332031 -11.476562 9.46875 -10.84375 9.34375 -10.09375 C 9.28125 -9.632812 9.140625 -9.203125 8.921875 -8.796875 C 7.429688 -6.128906 5.53125 -4.734375 3.21875 -4.609375 Z M 6.171875 -11.59375 C 5.148438 -11.625 4.238281 -11.328125 3.4375 -10.703125 C 2.632812 -10.078125 2.039062 -9.351562 1.65625 -8.53125 C 1.269531 -7.707031 1.160156 -7.03125 1.328125 -6.5 C 1.503906 -5.976562 2.046875 -5.835938 2.953125 -6.078125 C 3.984375 -6.390625 4.890625 -6.972656 5.671875 -7.828125 C 6.460938 -8.679688 6.941406 -9.492188 7.109375 -10.265625 C 7.285156 -11.046875 6.972656 -11.488281 6.171875 -11.59375 Z M 6.171875 -11.59375 "/></g></g></g></svg>